<svg width="119.99999999999999" height="119.99999999999999" xmlns="http://www.w3.org/2000/svg" stroke="null">
 <g id="Layer_1" stroke="null">
  <title stroke="null">Layer 1</title>
  <ellipse fill="#000000" opacity="NaN" cx="60.11494" cy="60.57471" id="svg_7" rx="59.65517" ry="59.65517" stroke="#000"/>
  <path fill="#fff" stroke="#000" opacity="NaN" d="m0.91954,60.68966" id="svg_9"/>
  <path fill="#fff" stroke="#000" opacity="NaN" d="m16.32184,20.45977" id="svg_10"/>
  <path fill="#fff" stroke="#000" opacity="NaN" d="m0.45977,60.91954" id="svg_11"/>
  <path fill="#fff" stroke="#000" opacity="NaN" d="m1.6092,63.67816" id="svg_12"/>
  <g stroke="null">
   <g stroke="null">
    <path stroke="null" fill="#ffffff" d="m95.81278,12.30164c0,0 -4.87516,12.18922 1.90768,21.01872c6.7827,8.82951 19.19921,9.04131 19.19921,9.04131l-56.9196,17.54252l35.81271,-47.60255z"/>
    <path stroke="null" fill="#CC7C65" d="m95.81278,12.30164c0,0 -18.22651,22.12142 -11.44381,30.95093c6.7827,8.82951 32.55069,-0.89089 32.55069,-0.89089l-56.9196,17.54252l35.81271,-47.60255z"/>
    <path stroke="null" fill="#ffffff" d="m116.95356,42.44374c0,0 -11.10837,6.99477 -10.81118,18.12498c0.29719,11.13021 10.21853,18.59888 10.21853,18.59888l-56.36084,-19.26341l56.95349,-17.46045z"/>
    <path stroke="null" fill="#CC7C65" d="m116.95356,42.44374c0,0 -27.74795,7.18274 -27.45076,18.31295c0.29719,11.13021 26.85811,18.41091 26.85811,18.41091l-56.36084,-19.26341l56.95349,-17.46045z"/>
    <path stroke="null" fill="#ffffff" d="m116.33999,79.25497c0,0 -13.09851,-0.87104 -19.40042,8.30927c-6.30178,9.17898 -2.66553,21.05314 -2.66553,21.05314l-34.27397,-48.71319l56.33992,19.35078z"/>
    <path stroke="null" fill="#CC7C65" d="m116.33999,79.25497c0,0 -26.67053,-10.49877 -32.97245,-1.31979c-6.30178,9.17898 10.90649,30.6822 10.90649,30.6822l-34.27397,-48.71319l56.33992,19.35078z"/>
    <path stroke="null" fill="#ffffff" d="m94.20653,108.6743c0,0 -10.08563,-8.40193 -20.57937,-4.68083c-10.49387,3.72242 -14.53135,15.46686 -14.53135,15.46686l0.90426,-59.55614l34.20646,48.77011z"/>
    <path stroke="null" fill="#CC7C65" d="m94.20653,108.6743c0,0 -15.40597,-24.16928 -25.89971,-20.44818c-10.49387,3.72242 -9.21101,31.23421 -9.21101,31.23421l0.90426,-59.55614l34.20646,48.77011z"/>
    <path stroke="null" fill="#ffffff" d="m59.00738,119.46695c0,0 -3.22032,-12.72667 -13.8978,-15.88384c-10.67748,-3.15585 -20.84663,3.97129 -20.84663,3.97129l35.73713,-47.65021l-0.99269,59.56276z"/>
    <path stroke="null" fill="#CC7C65" d="m59.00738,119.46695c0,0 1.74313,-28.61051 -8.93435,-31.76636c-10.67748,-3.15718 -25.81009,19.85381 -25.81009,19.85381l35.73713,-47.65021l-0.99269,59.56276z"/>
    <path stroke="null" fill="#ffffff" d="m24.18736,107.50806c0,0 4.87503,-12.18922 -1.90768,-21.01872c-6.78283,-8.83083 -19.19934,-9.04131 -19.19934,-9.04131l56.91973,-17.54384l-35.81271,47.60388z"/>
    <path stroke="null" fill="#CC7C65" d="m24.18736,107.50806c0,0 18.22651,-22.12142 11.44381,-30.95093c-6.78283,-8.83083 -32.55083,0.89089 -32.55083,0.89089l56.91973,-17.54384l-35.81271,47.60388z"/>
    <path stroke="null" fill="#ffffff" d="m3.04645,77.36596c0,0 11.10837,-6.99477 10.81118,-18.12498c-0.29719,-11.13153 -10.2184,-18.60021 -10.2184,-18.60021l56.36084,19.26341l-56.95362,17.46177z"/>
    <path stroke="null" fill="#CC7C65" d="m3.04645,77.36596c0,0 27.74808,-7.18274 27.45076,-18.31295c-0.29719,-11.13021 -26.85798,-18.41223 -26.85798,-18.41223l56.36084,19.26341l-56.95362,17.46177z"/>
    <path stroke="null" fill="#ffffff" d="m3.66001,40.55473c0,0 13.09864,0.86971 19.40042,-8.30927c6.30191,-9.17898 2.66553,-21.05314 2.66553,-21.05314l34.2741,48.71187l-56.34006,-19.34946z"/>
    <path stroke="null" fill="#CC7C65" d="m3.66001,40.55473c0,0 26.67067,10.49877 32.97245,1.31979c6.30191,-9.1803 -10.90649,-30.6822 -10.90649,-30.6822l34.2741,48.71187l-56.34006,-19.34946z"/>
    <path stroke="null" fill="#ffffff" d="m25.79348,11.13408c0,0 10.08563,8.40325 20.5795,4.68083c10.49387,-3.7211 14.53135,-15.46553 14.53135,-15.46553l-0.90426,59.55482l-34.20659,-48.77011z"/>
    <path stroke="null" fill="#CC7C65" d="m25.79348,11.13408c0,0 15.40597,24.17061 25.89984,20.44818c10.49387,-3.7211 9.21101,-31.23289 9.21101,-31.23289l-0.90426,59.55482l-34.20659,-48.77011z"/>
    <path stroke="null" fill="#ffffff" d="m60.99276,0.34275c0,0 3.22032,12.72667 13.8978,15.88252c10.67748,3.15718 20.84663,-3.96997 20.84663,-3.96997l-35.73713,47.64888l0.99269,-59.56144z"/>
    <path stroke="null" fill="#CC7C65" d="m60.99276,0.34275c0,0 -1.74326,28.60919 8.93422,31.76636c10.67761,3.15718 25.81022,-19.85381 25.81022,-19.85381l-35.73713,47.64888l0.99269,-59.56144z"/>
   </g>
  </g>
 </g>

</svg>