<svg width="119.99999999999999" height="119.99999999999999" xmlns="http://www.w3.org/2000/svg" stroke="null">
 <g stroke="null" id="Layer_1">
  <title stroke="null">Layer 1</title>
  <ellipse stroke="#000" ry="59.65517" rx="59.65517" id="svg_7" cy="60.57471" cx="60.11494" opacity="NaN" fill="#000000"/>
  <path id="svg_9" d="m0.91954,60.68966" opacity="NaN" stroke="#000" fill="#fff"/>
  <path id="svg_10" d="m16.32184,20.45977" opacity="NaN" stroke="#000" fill="#fff"/>
  <path id="svg_11" d="m0.45977,60.91954" opacity="NaN" stroke="#000" fill="#fff"/>
  <path id="svg_12" d="m1.6092,63.67816" opacity="NaN" stroke="#000" fill="#fff"/>
  <g stroke="null">
   <g stroke="null">
    <path stroke="null" fill="none" d="m60.00494,59.99783l52.19896,-35.87498l7.64416,12.18984l-59.84312,23.68514z"/>
    <path stroke="null" fill="none" d="m60.00494,60.00216l59.84312,23.68514l-7.64416,12.18984l-52.19896,-35.87498z"/>
    <path stroke="null" fill="none" d="m59.99992,60.00505l7.64416,59.55867l-15.28832,0l7.64416,-59.55867z"/>
    <path stroke="null" fill="none" d="m59.9949,60.00216l-52.19896,35.87498l-7.644,-12.18984l59.84297,-23.68514z"/>
    <path stroke="null" fill="none" d="m59.9949,59.99783l-59.84297,-23.68514l7.644,-12.18984l52.19896,35.87498z"/>
    <path stroke="null" fill="none" d="m59.99992,59.99494l-7.64416,-59.55867l15.28832,0l-7.64416,59.55867z"/>
    <path stroke="null" fill="none" d="m69.79311,60.29817l48.17144,-3.32831l0.09488,7.68038l-48.26632,-4.35207z"/>
    <path stroke="null" fill="none" d="m65.08871,68.28755l27.67483,37.52253l-7.12694,3.89145l-20.54789,-41.41398z"/>
    <path stroke="null" fill="none" d="m55.22542,68.42906l-20.94373,41.14251l-7.27012,-3.86401l28.21385,-37.2785z"/>
    <path stroke="null" fill="none" d="m50.06308,60.47866l-49.11869,3.40051l-0.09817,-7.83055l49.21686,4.43004z"/>
    <path stroke="null" fill="none" d="m54.85875,52.33189l-28.22561,-38.2575l7.26651,-3.96798l20.9591,42.22548z"/>
    <path stroke="null" fill="none" d="m64.91588,52.18605l21.34897,-41.95546l7.41393,3.9391l-28.76291,38.01636z"/>
   </g>
  </g>
  <g stroke="null">
   <g stroke="null">
    <path stroke="null" fill="#0fc9fc" d="m60.00409,59.99806l43.16181,-32.21834l6.32073,10.94736l-49.48255,21.27098z"/>
    <path stroke="null" fill="#0fc9fc" d="m60.00409,60.00195l49.48255,21.27098l-6.32073,10.94736l-43.16181,-32.21834z"/>
    <path stroke="null" fill="#0fc9fc" d="m59.99994,60.00454l6.32073,53.48802l-12.64147,0l6.32073,-53.48802z"/>
    <path stroke="null" fill="#0fc9fc" d="m59.99579,60.00195l-43.16181,32.21834l-6.3206,-10.94736l49.48242,-21.27098z"/>
    <path stroke="null" fill="#0fc9fc" d="m59.99579,59.99806l-49.48242,-21.27098l6.3206,-10.94736l43.16181,32.21834z"/>
    <path stroke="null" fill="#0fc9fc" d="m59.99994,59.99546l-6.32073,-53.48802l12.64147,0l-6.32073,53.48802z"/>
    <path stroke="null" fill="#0fc9fc" d="m68.09764,60.26779l39.83157,-2.98906l0.07845,6.89754l-39.91002,-3.90848z"/>
    <path stroke="null" fill="#0fc9fc" d="m64.20771,67.44283l22.88352,33.69796l-5.89306,3.4948l-16.99046,-37.19276z"/>
    <path stroke="null" fill="#0fc9fc" d="m56.05204,67.56992l-17.31776,36.94897l-6.01145,-3.47017l23.32922,-33.4788z"/>
    <path stroke="null" fill="#0fc9fc" d="m51.78345,60.42988l-40.61482,3.0539l-0.08118,-7.0324l40.696,3.9785z"/>
    <path stroke="null" fill="#0fc9fc" d="m55.74885,53.11349l-23.33894,-34.35802l6.00847,-3.56353l17.33047,37.92155z"/>
    <path stroke="null" fill="#0fc9fc" d="m64.0648,52.98251l17.65285,-37.67905l6.13037,3.5376l-23.78322,34.14146z"/>
   </g>
  </g>
 </g>

</svg>