<svg width="310" height="450" xmlns="http://www.w3.org/2000/svg">
 <g>
  <title>Layer 1</title>
  <path fill="#000000" stroke="#000" opacity="undefined" d="m0.48077,0.04257l310,0l0,450l-310,0l0,-450z" id="svg_1"/>
  <path fill="#ffffff" stroke="#000" opacity="undefined" d="m85.84015,142.46594c-1.22775,0 -2.22222,-0.99447 -2.22222,-2.22222c0,-1.22775 0.99447,-2.22222 2.22222,-2.22222c1.22775,0 2.22222,0.99447 2.22222,2.22222c0,1.22775 -0.99447,2.22222 -2.22222,2.22222z" id="svg_2"/>
  <path fill="#ffffff" stroke="#000" opacity="undefined" d="m229.52248,210.85533c-1.2696,0 -2.29798,-1.02838 -2.29798,-2.29798c0,-1.2696 1.02838,-2.29798 2.29798,-2.29798c1.2696,0 2.29798,1.02838 2.29798,2.29798c0,1.2696 -1.02838,2.29798 -2.29798,2.29798z" id="svg_3"/>
  <ellipse fill="#ffffff" stroke="#000" cx="77.97428" cy="300.14203" id="svg_4" rx="2.5" ry="2.5"/>
  <ellipse fill="#ffffff" stroke="#000" cx="216.01005" cy="329.89871" id="svg_5" rx="2.12121" ry="2.12121"/>
  <path fill="#ffffff" stroke="#000" opacity="undefined" d="m75.81076,216.6022c-1.08823,0 -1.9697,-0.88147 -1.9697,-1.9697c0,-1.08823 0.88147,-1.9697 1.9697,-1.9697c1.08823,0 1.9697,0.88147 1.9697,1.9697c0,1.08823 -0.88147,1.9697 -1.9697,1.9697z" id="svg_6"/>
  <ellipse fill="#ffffff" stroke="#000" cx="222.24742" cy="116.13621" id="svg_7" rx="2.80303" ry="2.80303"/>
  <ellipse fill="#ffffff" stroke="#000" cx="79.49497" cy="49.49482" id="svg_8" rx="2.27273" ry="2.27273"/>
  <ellipse fill="#ffffff" stroke="#000" cx="111.18687" cy="380.07548" id="svg_9" rx="2.14646" ry="2.14646"/>
  <ellipse fill="#ffffff" stroke="#000" cx="222.80297" cy="400.58051" id="svg_10" rx="2.24747" ry="2.24747"/>
  <ellipse fill="#ffffff" stroke="#000" cx="202.03031" cy="167.86524" id="svg_11" rx="2.39899" ry="2.39899"/>
  <ellipse fill="#ffffff" stroke="#000" cx="163.88887" cy="263.88866" id="svg_12" rx="1.66667" ry="1.66667"/>
  <ellipse fill="#ffffff" stroke="#000" cx="39.72226" cy="411.38859" id="svg_13" rx="3.05555" ry="3.05555"/>
  <ellipse fill="#ffffff" stroke="#000" cx="257.90397" cy="49.31805" id="svg_14" rx="2.65151" ry="2.65151"/>
  <ellipse fill="#ffffff" stroke="#000" cx="136.6414" cy="88.30794" id="svg_15" rx="2.24747" ry="2.24747"/>
  <ellipse fill="#ffffff" stroke="#000" cx="273.5131" cy="169.2644" id="svg_16" rx="1.48682" ry="1.48682"/>
  <ellipse fill="#ffffff" stroke="#000" cx="132.77777" cy="323.33306" id="svg_17" rx="1.66666" ry="1.66666"/>
  <ellipse fill="#ffffff" stroke="#000" cx="238.88883" cy="256.66644" id="svg_18" rx="1.11111" ry="1.11111"/>
  <ellipse fill="#ffffff" stroke="#000" cx="139.38452" cy="192.91374" id="svg_19" rx="1.94444" ry="1.94444"/>
  <g>
   <g>
    <g>
     <path d="m194.25251,148.50901c3.75,0.973 5.916,4.901 4.95,8.57c-0.298,2.14 -7.612,10.988 -10.503,11.667c-2.125,-1.986 -3.769,-13.279 -3.02,-15.29c0.997,-3.66 4.84,-5.98 8.573,-4.947zm-6.47,24.148a2,2 0 1 1 -1.036,3.864a2,2 0 0 1 1.036,-3.864zm43.047,-8.998c3.37,1.911 4.446,6.266 2.564,9.56c-0.842,1.99 -10.197,8.643 -13.165,8.55c-1.54,-2.467 -0.204,-13.8 1.04,-15.55c1.91,-3.278 6.223,-4.523 9.561,-2.56zm-12.5,21.651a2,2 0 1 1 -2,3.464a2,2 0 0 1 2,-3.464zm43.91,2.45c2.761,2.719 2.673,7.204 0.002,9.899c-1.328,1.703 -12.087,5.709 -14.93,4.851c-0.847,-2.782 3.376,-13.384 5.03,-14.75c2.693,-2.673 7.181,-2.76 9.898,0zm-17.678,17.679a2,2 0 1 1 -2.828,2.828a2,2 0 0 1 2.828,-2.828zm41.78,13.731c1.963,3.34 0.717,7.65 -2.56,9.562c-1.724,1.301 -13.153,2.386 -15.677,0.822c-0.099,-2.907 6.724,-12.054 8.676,-12.947c3.293,-1.884 7.65,-0.806 9.56,2.563l0.001,0zm-21.651,12.5a2,2 0 1 1 -3.464,2a2,2 0 0 1 3.464,-2zm36.801,24.078c1.032,3.734 -1.287,7.574 -4.947,8.572c-2.002,0.811 -13.322,-1.099 -15.355,-3.263c0.657,-2.833 9.615,-9.903 11.731,-10.26c3.669,-0.967 7.598,1.202 8.571,4.95l0,0.001zm-24.148,6.47a2,2 0 1 1 -3.864,1.035a2,2 0 0 1 3.864,-1.035zm29.316,32.782c0.03,3.874 -3.203,6.983 -6.998,7c-2.143,0.265 -12.583,-4.51 -13.987,-7.126c1.368,-2.567 11.85,-7.077 13.987,-6.874c3.794,0.015 7.029,3.127 6.998,7zm-25,0a2,2 0 1 1 -4,0a2,2 0 0 1 4,0zm19.832,39.252c-0.973,3.75 -4.901,5.916 -8.57,4.95c-2.14,-0.298 -10.988,-7.612 -11.667,-10.503c1.986,-2.125 13.279,-3.769 15.29,-3.02c3.66,0.997 5.98,4.84 4.947,8.573zm-24.148,-6.47a2,2 0 1 1 -3.864,-1.036a2,2 0 0 1 3.864,1.036zm8.998,43.047c-1.911,3.37 -6.266,4.446 -9.56,2.564c-1.99,-0.842 -8.643,-10.197 -8.55,-13.165c2.467,-1.54 13.8,-0.204 15.55,1.04c3.278,1.91 4.522,6.223 2.56,9.561zm-21.651,-12.5a2,2 0 1 1 -3.464,-2a2,2 0 0 1 3.464,2zm-2.45,43.91c-2.719,2.76 -7.204,2.673 -9.899,0.002c-1.703,-1.328 -5.709,-12.087 -4.851,-14.93c2.782,-0.847 13.384,3.376 14.75,5.03c2.673,2.693 2.76,7.181 0,9.898zm-17.68,-17.678a2,2 0 1 1 -2.828,-2.828a2,2 0 0 1 2.828,2.828zm-13.73,41.78c-3.34,1.963 -7.649,0.717 -9.56,-2.56c-1.302,-1.724 -2.387,-13.153 -0.823,-15.677c2.907,-0.099 12.054,6.724 12.947,8.676c1.884,3.293 0.806,7.65 -2.564,9.56l0,0.001zm-12.5,-21.651a2,2 0 1 1 -2,-3.464a2,2 0 0 1 2,3.464zm-24.077,36.801c-3.734,1.032 -7.574,-1.287 -8.572,-4.947c-0.812,-2.002 1.098,-13.322 3.263,-15.355c2.833,0.657 9.903,9.615 10.26,11.731c0.967,3.669 -1.202,7.598 -4.95,8.571l-0.001,0zm-6.47,-24.148a2,2 0 1 1 -1.036,-3.864a2,2 0 0 1 1.036,3.864zm-32.783,29.316c-3.874,0.03 -6.983,-3.203 -7,-6.998c-0.265,-2.143 4.51,-12.583 7.126,-13.987c2.567,1.368 7.077,11.85 6.874,13.987c-0.015,3.794 -3.127,7.029 -7,6.998zm0,-25a2,2 0 1 1 0,-4a2,2 0 0 1 0,4zm-39.252,19.832c-3.75,-0.973 -5.916,-4.901 -4.95,-8.57c0.298,-2.14 7.612,-10.988 10.503,-11.667c2.125,1.986 3.769,13.279 3.02,15.29c-0.997,3.66 -4.84,5.98 -8.573,4.947zm6.47,-24.148a2,2 0 1 1 1.036,-3.864a2,2 0 0 1 -1.036,3.864zm-43.048,8.998c-3.37,-1.91 -4.445,-6.265 -2.563,-9.56c0.842,-1.988 10.197,-8.643 13.165,-8.55c1.54,2.468 0.204,13.802 -1.04,15.55c-1.91,3.279 -6.223,4.523 -9.562,2.56zm12.5,-21.65a2,2 0 1 1 2,-3.464a2,2 0 0 1 -2,3.464zm-43.91,-2.45c-2.76,-2.719 -2.672,-7.204 0,-9.899c1.327,-1.703 12.086,-5.709 14.929,-4.851c0.847,2.782 -3.376,13.384 -5.03,14.75c-2.693,2.673 -7.181,2.76 -9.898,0l-0.001,0zm17.68,-17.68a2,2 0 1 1 2.828,-2.828a2,2 0 0 1 -2.828,2.828zm-41.78,-13.732c-1.963,-3.34 -0.717,-7.649 2.56,-9.56c1.724,-1.302 13.153,-2.387 15.677,-0.823c0.099,2.907 -6.724,12.054 -8.676,12.947c-3.293,1.884 -7.65,0.806 -9.56,-2.564l-0.001,0zm21.651,-12.5a2,2 0 1 1 3.464,-2a2,2 0 0 1 -3.464,2zm-36.801,-24.077c-1.032,-3.734 1.287,-7.574 4.947,-8.572c2.002,-0.811 13.322,1.098 15.355,3.263c-0.657,2.833 -9.615,9.903 -11.731,10.26c-3.669,0.967 -7.598,-1.202 -8.571,-4.95l0,-0.001zm24.148,-6.47a2,2 0 1 1 3.864,-1.036a2,2 0 0 1 -3.864,1.036zm-29.318,-32.782c-0.03,-3.874 3.203,-6.983 6.998,-7c2.143,-0.265 12.583,4.51 13.987,7.126c-1.368,2.567 -11.85,7.077 -13.987,6.874c-3.794,-0.015 -7.029,-3.127 -6.998,-7zm25,0a2,2 0 1 1 4,0a2,2 0 0 1 -4,0zm-19.831,-39.252c0.973,-3.75 4.901,-5.916 8.57,-4.95c2.14,0.298 10.988,7.612 11.667,10.503c-1.986,2.125 -13.279,3.769 -15.29,3.02c-3.66,-0.997 -5.98,-4.84 -4.947,-8.573zm24.148,6.47a2,2 0 1 1 3.864,1.036a2,2 0 0 1 -3.864,-1.036zm-8.998,-43.047c1.911,-3.37 6.266,-4.445 9.56,-2.563c1.99,0.842 8.643,10.197 8.55,13.165c-2.467,1.54 -13.8,0.204 -15.55,-1.04c-3.278,-1.91 -4.523,-6.223 -2.56,-9.562zm21.651,12.5a2,2 0 1 1 3.464,2a2,2 0 0 1 -3.464,-2zm2.45,-43.91c2.719,-2.76 7.204,-2.672 9.899,0c1.703,1.327 5.709,12.086 4.851,14.929c-2.782,0.847 -13.384,-3.376 -14.75,-5.03c-2.673,-2.693 -2.76,-7.181 0,-9.898l0,-0.001zm17.68,17.679a2,2 0 1 1 2.828,2.828a2,2 0 0 1 -2.828,-2.828zm13.731,-41.78c3.34,-1.963 7.65,-0.717 9.562,2.56c1.301,1.724 2.386,13.153 0.822,15.677c-2.907,0.099 -12.054,-6.724 -12.947,-8.676c-1.884,-3.293 -0.806,-7.65 2.563,-9.56l0,-0.001zm12.5,21.651a2,2 0 1 1 2,3.464a2,2 0 0 1 -2,-3.464zm24.078,-36.801c3.734,-1.032 7.574,1.287 8.572,4.947c0.811,2.002 -1.098,13.322 -3.263,15.355c-2.833,-0.657 -9.903,-9.615 -10.26,-11.731c-0.967,-3.669 1.202,-7.598 4.95,-8.571l0.001,0zm6.47,24.148a2,2 0 1 1 1.035,3.864a2,2 0 0 1 -1.035,-3.864zm32.781,-29.317c3.874,-0.03 6.983,3.203 7,6.998c0.265,2.143 -4.51,12.583 -7.126,13.987c-2.567,-1.368 -7.077,-11.85 -6.874,-13.987c0.015,-3.794 3.127,-7.029 7,-6.998zm0,25a2,2 0 1 1 0,4a2,2 0 0 1 0,-4zm74.812,52.89c2.734,2.69 2.649,7.126 0.006,9.79c-1.313,1.685 -11.96,5.643 -14.774,4.794c-0.84,-2.753 3.336,-13.239 4.972,-14.59c2.665,-2.643 7.106,-2.726 9.796,0.005l0,0.001zm-17.488,17.48a1.978,1.978 0 1 1 -2.798,2.796a1.978,1.978 0 1 1 2.798,-2.797l0,0.001zm44.384,29.972c1.028,3.7 -1.265,7.499 -4.89,8.483c-1.983,0.8 -13.202,-1.107 -15.22,-3.253c0.647,-2.805 9.514,-9.793 11.61,-10.144c3.634,-0.953 7.531,1.2 8.5,4.914zm-23.92,6.375a1.975,1.975 0 0 1 -1.397,2.423a1.988,1.988 0 0 1 -2.43,-1.404a1.975,1.975 0 0 1 1.399,-2.423a1.988,1.988 0 0 1 2.429,1.404l-0.001,0zm23.538,48.199c-0.957,3.718 -4.847,5.86 -8.486,4.895c-2.12,-0.3 -10.905,-7.574 -11.584,-10.444c1.965,-2.105 13.155,-3.714 15.15,-2.966c3.63,0.995 5.936,4.813 4.92,8.515zm-23.948,-6.466a1.974,1.974 0 0 1 -2.425,1.398a1.993,1.993 0 0 1 -1.407,-2.433a1.974,1.974 0 0 1 2.425,-1.399a1.993,1.993 0 0 1 1.407,2.434zm-3.67,53.536c-2.69,2.74 -7.137,2.646 -9.813,-0.013c-1.69,-1.323 -5.679,-12.024 -4.833,-14.85c2.758,-0.838 13.275,3.376 14.633,5.023c2.653,2.681 2.746,7.143 0.013,9.84zm-17.553,-17.6a1.98,1.98 0 0 1 -2.804,-0.005a1.992,1.992 0 0 1 -0.005,-2.812a1.98,1.98 0 0 1 2.805,0.005c0.775,0.777 0.777,2.036 0.004,2.811l0,0.001zm-29.955,44.524c-3.705,1.026 -7.518,-1.285 -8.51,-4.929c-0.807,-1.992 1.083,-13.259 3.23,-15.281c2.812,0.655 9.833,9.575 10.189,11.682c0.962,3.652 -1.189,7.562 -4.909,8.528zm-6.435,-24.038a1.987,1.987 0 0 1 -2.432,-1.41a1.989,1.989 0 0 1 1.402,-2.437a1.987,1.987 0 0 1 2.432,1.41a1.989,1.989 0 0 1 -1.402,2.436l0,0.001zm-48.261,23.549c-3.73,-0.97 -5.883,-4.88 -4.923,-8.534c0.297,-2.13 7.57,-10.94 10.445,-11.615c2.113,1.977 3.747,13.22 3.002,15.223c-0.99,3.645 -4.812,5.953 -8.524,4.926zm6.434,-24.043a1.992,1.992 0 0 1 1.03,-3.847a1.992,1.992 0 0 1 -1.03,3.847zm-53.664,-3.79c-2.752,-2.708 -2.666,-7.175 -0.006,-9.858c1.323,-1.695 12.04,-5.68 14.874,-4.825c0.845,2.771 -3.358,13.328 -5.006,14.688c-2.682,2.66 -7.153,2.745 -9.862,-0.005zm17.606,-17.598a1.991,1.991 0 1 1 2.817,-2.816a1.991,1.991 0 1 1 -2.817,2.816zm-44.683,-30.174c-1.034,-3.724 1.274,-7.55 4.924,-8.54c1.995,-0.806 13.29,1.114 15.322,3.275c-0.652,2.823 -9.578,9.859 -11.689,10.212c-3.658,0.96 -7.58,-1.209 -8.557,-4.947zm24.08,-6.418a1.988,1.988 0 0 1 1.408,-2.44a2.001,2.001 0 0 1 2.445,1.414a1.988,1.988 0 0 1 -1.407,2.44a2.001,2.001 0 0 1 -2.446,-1.414zm-23.695,-48.523c0.964,-3.743 4.88,-5.9 8.543,-4.928c2.135,0.302 10.979,7.625 11.661,10.514c-1.977,2.119 -13.242,3.739 -15.25,2.987c-3.656,-1.002 -5.977,-4.846 -4.954,-8.573zm24.109,6.51a1.987,1.987 0 0 1 2.441,-1.408a2.006,2.006 0 0 1 1.416,2.45a1.988,1.988 0 0 1 -2.441,1.407a2.006,2.006 0 0 1 -1.416,-2.45l0,0.001zm3.694,-53.897c2.709,-2.76 7.185,-2.664 9.88,0.013c1.701,1.332 5.716,12.105 4.864,14.95c-2.775,0.844 -13.363,-3.399 -14.73,-5.057c-2.672,-2.7 -2.765,-7.19 -0.014,-9.906zm17.672,17.719a1.992,1.992 0 0 1 2.823,0.004c0.78,0.783 0.782,2.05 0.004,2.831a1.992,1.992 0 0 1 -2.823,-0.004a2.006,2.006 0 0 1 -0.004,-2.831zm30.154,-44.825c3.731,-1.032 7.569,1.294 8.569,4.963c0.811,2.005 -1.09,13.348 -3.252,15.384c-2.832,-0.66 -9.9,-9.64 -10.258,-11.76c-0.969,-3.677 1.196,-7.614 4.941,-8.587zm6.479,24.2a2,2 0 0 1 2.448,1.42a2.002,2.002 0 0 1 -1.411,2.453a2,2 0 0 1 -2.449,-1.418a2.002,2.002 0 0 1 1.412,-2.454l0,-0.001zm48.586,-23.707c3.754,0.975 5.922,4.913 4.955,8.59c-0.298,2.145 -7.62,11.014 -10.514,11.694c-2.128,-1.99 -3.773,-13.31 -3.023,-15.325c0.997,-3.67 4.844,-5.994 8.582,-4.96l0,0.001zm-6.476,24.205a2.005,2.005 0 0 1 -1.037,3.872a2.005,2.005 0 0 1 1.036,-3.872l0.001,0z" fill="#1070ff"/>
    </g>
    <g>
     <path d="m209.45151,200.93101c3.37,1.91 4.446,6.266 2.564,9.56c-0.842,1.99 -10.197,8.643 -13.165,8.55c-1.54,-2.468 -0.204,-13.8 1.04,-15.55c1.91,-3.278 6.222,-4.523 9.561,-2.56zm-12.5,21.65a2,2 0 1 1 -2,3.465a2,2 0 0 1 2,-3.464l0,-0.001zm52.361,18.211c1.964,3.34 0.718,7.65 -2.56,9.561c-1.723,1.302 -13.152,2.387 -15.676,0.822c-0.099,-2.907 6.724,-12.054 8.676,-12.946c3.293,-1.884 7.65,-0.806 9.56,2.563zm-21.65,12.5a2,2 0 1 1 -3.464,2a2,2 0 0 1 3.464,-2zm36.24,41.952c0.031,3.874 -3.203,6.983 -6.997,7c-2.143,0.265 -12.583,-4.51 -13.987,-7.127c1.368,-2.566 11.85,-7.077 13.987,-6.873c3.794,0.014 7.028,3.127 6.998,7l-0.001,0zm-25,0a2,2 0 1 1 -4,0a2,2 0 0 1 4,0zm10.41,54.451c-1.91,3.37 -6.265,4.446 -9.56,2.563c-1.988,-0.841 -8.643,-10.197 -8.55,-13.165c2.468,-1.539 13.801,-0.203 15.55,1.04c3.279,1.91 4.523,6.223 2.56,9.562zm-21.65,-12.5a2,2 0 1 1 -3.464,-2a2,2 0 0 1 3.464,2zm-18.21,52.361c-3.34,1.963 -7.65,0.717 -9.562,-2.56c-1.301,-1.723 -2.386,-13.152 -0.822,-15.676c2.907,-0.1 12.054,6.724 12.947,8.676c1.884,3.293 0.806,7.65 -2.564,9.56l0.001,0zm-12.5,-21.65a2,2 0 1 1 -2,-3.465a2,2 0 0 1 2,3.464l0,0.001zm-41.952,36.239c-3.874,0.03 -6.983,-3.203 -7,-6.997c-0.265,-2.144 4.51,-12.584 7.126,-13.988c2.567,1.368 7.077,11.851 6.874,13.988c-0.015,3.793 -3.127,7.028 -7,6.997zm0,-25a2,2 0 1 1 0,-4a2,2 0 0 1 0,4zm-54.451,10.41c-3.37,-1.91 -4.446,-6.266 -2.564,-9.56c0.842,-1.989 10.197,-8.643 13.165,-8.55c1.54,2.468 0.204,13.801 -1.04,15.55c-1.91,3.278 -6.222,4.523 -9.561,2.56zm12.5,-21.65a2,2 0 1 1 2,-3.465a2,2 0 0 1 -2,3.464l0,0.001zm-52.361,-18.211c-1.964,-3.34 -0.718,-7.65 2.56,-9.561c1.723,-1.302 13.152,-2.387 15.676,-0.822c0.099,2.907 -6.724,12.054 -8.676,12.946c-3.293,1.885 -7.65,0.806 -9.56,-2.563zm21.65,-12.5a2,2 0 1 1 3.464,-2a2,2 0 0 1 -3.464,2zm-36.24,-41.951c-0.031,-3.874 3.203,-6.983 6.997,-7c2.143,-0.266 12.583,4.509 13.987,7.126c-1.368,2.567 -11.85,7.077 -13.987,6.874c-3.794,-0.015 -7.028,-3.127 -6.998,-7l0.001,0zm25,0a2,2 0 1 1 4,0a2,2 0 0 1 -4,0zm-10.411,-54.452c1.91,-3.37 6.265,-4.445 9.56,-2.563c1.988,0.842 8.643,10.197 8.55,13.165c-2.468,1.539 -13.802,0.204 -15.55,-1.04c-3.279,-1.91 -4.523,-6.223 -2.56,-9.562zm21.65,12.5a2,2 0 1 1 3.464,2a2,2 0 0 1 -3.464,-2zm18.21,-52.36c3.34,-1.964 7.65,-0.718 9.562,2.56c1.301,1.723 2.386,13.151 0.822,15.676c-2.907,0.098 -12.054,-6.725 -12.947,-8.677c-1.884,-3.293 -0.806,-7.65 2.564,-9.56l-0.001,0.001zm12.5,21.65a2,2 0 1 1 2,3.464a2,2 0 0 1 -2,-3.464zm41.953,-36.24c3.874,-0.03 6.983,3.203 7,6.998c0.265,2.143 -4.51,12.583 -7.126,13.987c-2.567,-1.368 -7.077,-11.85 -6.874,-13.987c0.015,-3.794 3.127,-7.029 7,-6.998zm0,25a2,2 0 1 1 0,4a2,2 0 0 1 0,-4zm34.472,24.237c2.412,1.357 2.718,5.268 0.831,8.56c-0.907,1.95 -9.08,9.287 -11.401,9.568c-0.904,-2.101 1.547,-12.79 2.741,-14.568c1.906,-3.28 5.449,-4.97 7.83,-3.56l-0.001,0zm-12.5,21.65a2,2 0 1 1 -2,3.465a2,2 0 0 1 2,-3.465zm26.78,-10.694c1.977,1.936 1.26,5.792 -1.414,8.484c-1.38,1.65 -11.175,6.62 -13.49,6.291c-0.328,-2.264 4.806,-11.954 6.42,-13.362c2.69,-2.675 6.549,-3.39 8.483,-1.413l0.001,0zm-17.679,17.678a2,2 0 1 1 -2.828,2.828a2,2 0 0 1 2.828,-2.828zm28.635,-3.399c1.41,2.382 -0.28,5.921 -3.56,7.83c-1.762,1.235 -12.508,3.501 -14.659,2.585c0.268,-2.272 7.736,-10.303 9.658,-11.246c3.291,-1.888 7.204,-1.58 8.56,0.831l0.001,0zm-21.651,12.5a2,2 0 1 1 -3.464,2a2,2 0 0 1 3.464,-2zm28.538,4.128c0.746,2.665 -1.803,5.647 -5.465,6.641c-2.021,0.738 -12.988,0.146 -14.828,-1.297c0.847,-2.125 10.139,-7.95 12.24,-8.362c3.667,-0.972 7.367,0.338 8.053,3.018zm-24.148,6.47a2,2 0 1 1 -3.864,1.036a2,2 0 0 1 3.864,-1.035l0,-0.001zm26.497,11.374c0.03,2.768 -3.203,4.988 -6.997,5c-2.143,0.19 -12.584,-3.22 -13.987,-5.09c1.368,-1.833 11.85,-5.055 13.987,-4.91c3.794,0.01 7.028,2.234 6.997,5zm-25,0a2,2 0 1 1 -4,0a2,2 0 0 1 4,0zm22.651,17.845c-0.687,2.68 -4.385,3.988 -8.053,3.018c-2.12,-0.371 -11.321,-6.368 -12.193,-8.537c1.796,-1.417 12.755,-1.815 14.781,-1.122c3.662,0.992 6.21,3.976 5.465,6.64l0,0.001zm-24.148,-6.47a2,2 0 1 1 -3.864,-1.036a2,2 0 0 1 3.864,1.035l0,0.001zm17.26,23.098c-1.357,2.411 -5.267,2.718 -8.56,0.83c-1.95,-0.906 -9.287,-9.08 -9.568,-11.4c2.102,-0.905 12.79,1.547 14.568,2.74c3.28,1.907 4.97,5.45 3.56,7.83zm-21.65,-12.5a2,2 0 1 1 -3.464,-2a2,2 0 0 1 3.464,2zm10.694,26.779c-1.935,1.978 -5.792,1.261 -8.484,-1.413c-1.65,-1.381 -6.62,-11.175 -6.29,-13.49c2.263,-0.329 11.953,4.805 13.361,6.419c2.676,2.69 3.39,6.549 1.413,8.483l0,0.001zm-17.678,-17.678a2,2 0 1 1 -2.828,-2.829a2,2 0 0 1 2.828,2.829zm3.4,28.634c-2.382,1.41 -5.922,-0.28 -7.83,-3.56c-1.236,-1.761 -3.502,-12.508 -2.585,-14.658c2.272,0.268 10.303,7.735 11.245,9.658c1.888,3.29 1.58,7.203 -0.83,8.56zm-12.5,-21.65a2,2 0 1 1 -2,-3.465a2,2 0 0 1 2,3.464l0,0.001zm-4.129,28.538c-2.665,0.745 -5.647,-1.804 -6.64,-5.466c-0.738,-2.02 -0.146,-12.988 1.296,-14.827c2.125,0.846 7.95,10.138 8.363,12.24c0.972,3.667 -0.339,7.366 -3.019,8.053zm-6.47,-24.148a2,2 0 1 1 -1.036,-3.864a2,2 0 0 1 1.036,3.864zm-11.374,26.497c-2.767,0.03 -4.988,-3.203 -5,-6.998c-0.19,-2.143 3.22,-12.583 5.09,-13.987c1.834,1.368 5.055,11.85 4.91,13.987c-0.01,3.794 -2.234,7.028 -5,6.998zm0,-25a2,2 0 1 1 0,-4a2,2 0 0 1 0,4zm-17.844,22.65c-2.68,-0.686 -3.989,-4.384 -3.019,-8.053c0.372,-2.119 6.368,-11.32 8.537,-12.193c1.417,1.796 1.816,12.755 1.123,14.781c-0.992,3.662 -3.977,6.211 -6.641,5.466l0,-0.001zm6.47,-24.147a2,2 0 1 1 1.036,-3.864a2,2 0 0 1 -1.036,3.864zm-23.098,17.26c-2.412,-1.357 -2.718,-5.268 -0.831,-8.56c0.907,-1.951 9.08,-9.287 11.401,-9.568c0.904,2.101 -1.547,12.79 -2.741,14.568c-1.906,3.28 -5.449,4.97 -7.83,3.56l0.001,0zm12.5,-21.65a2,2 0 1 1 2,-3.465a2,2 0 0 1 -2,3.464l0,0.001zm-26.78,10.694c-1.977,-1.936 -1.26,-5.792 1.414,-8.484c1.38,-1.65 11.175,-6.62 13.49,-6.291c0.328,2.264 -4.806,11.954 -6.42,13.362c-2.69,2.675 -6.549,3.39 -8.483,1.413l-0.001,0zm17.679,-17.678a2,2 0 1 1 2.828,-2.829a2,2 0 0 1 -2.828,2.829zm-28.635,3.399c-1.41,-2.382 0.28,-5.922 3.56,-7.83c1.762,-1.235 12.508,-3.502 14.659,-2.585c-0.268,2.272 -7.736,10.303 -9.658,11.246c-3.291,1.888 -7.204,1.58 -8.56,-0.831l-0.001,0zm21.651,-12.5a2,2 0 1 1 3.464,-2a2,2 0 0 1 -3.464,2zm-28.538,-4.128c-0.746,-2.665 1.803,-5.647 5.465,-6.641c2.021,-0.738 12.988,-0.146 14.828,1.296c-0.847,2.125 -10.139,7.95 -12.24,8.363c-3.667,0.972 -7.367,-0.338 -8.053,-3.018zm24.148,-6.47a2,2 0 1 1 3.864,-1.036a2,2 0 0 1 -3.864,1.035l0,0.001zm-26.497,-11.375c-0.03,-2.767 3.203,-4.987 6.997,-5c2.143,-0.19 12.584,3.221 13.987,5.09c-1.368,1.834 -11.85,5.056 -13.987,4.91c-3.794,-0.01 -7.028,-2.233 -6.997,-5zm25,0a2,2 0 1 1 4,0a2,2 0 0 1 -4,0zm-22.651,-17.844c0.687,-2.68 4.385,-3.988 8.053,-3.018c2.12,0.371 11.321,6.368 12.193,8.537c-1.796,1.417 -12.755,1.815 -14.781,1.122c-3.662,-0.992 -6.21,-3.976 -5.465,-6.64l0,-0.001zm24.148,6.47a2,2 0 1 1 3.864,1.036a2,2 0 0 1 -3.864,-1.035l0,-0.001zm-17.26,-23.098c1.357,-2.411 5.267,-2.718 8.56,-0.831c1.95,0.907 9.287,9.081 9.568,11.402c-2.102,0.904 -12.79,-1.548 -14.568,-2.742c-3.28,-1.906 -4.97,-5.448 -3.56,-7.829zm21.65,12.5a2,2 0 1 1 3.464,2a2,2 0 0 1 -3.464,-2zm-10.694,-26.779c1.935,-1.978 5.792,-1.261 8.484,1.413c1.65,1.381 6.62,11.175 6.29,13.49c-2.263,0.329 -11.953,-4.806 -13.361,-6.419c-2.676,-2.69 -3.39,-6.55 -1.413,-8.484zm17.678,17.678a2,2 0 1 1 2.828,2.829a2,2 0 0 1 -2.828,-2.829zm-3.4,-28.634c2.382,-1.41 5.922,0.28 7.83,3.56c1.236,1.761 3.502,12.508 2.585,14.658c-2.272,-0.268 -10.303,-7.735 -11.245,-9.658c-1.888,-3.29 -1.58,-7.203 0.83,-8.56zm12.5,21.65a2,2 0 1 1 2,3.465a2,2 0 0 1 -2,-3.465zm4.129,-28.538c2.665,-0.745 5.647,1.803 6.64,5.465c0.738,2.021 0.146,12.989 -1.296,14.828c-2.125,-0.846 -7.95,-10.138 -8.363,-12.24c-0.972,-3.667 0.339,-7.366 3.019,-8.053zm6.47,24.148a2,2 0 1 1 1.036,3.864a2,2 0 0 1 -1.036,-3.864zm11.374,-26.497c2.767,-0.03 4.988,3.203 5,6.998c0.19,2.143 -3.221,12.583 -5.09,13.987c-1.834,-1.368 -5.055,-11.85 -4.91,-13.987c0.01,-3.794 2.234,-7.029 5,-6.998zm0,25a2,2 0 1 1 0,4a2,2 0 0 1 0,-4zm17.844,-22.65c2.68,0.686 3.989,4.384 3.019,8.053c-0.372,2.119 -6.368,11.32 -8.537,12.193c-1.417,-1.796 -1.816,-12.755 -1.123,-14.782c0.992,-3.662 3.977,-6.21 6.641,-5.465l0,0.001zm-6.47,24.147a2,2 0 1 1 -1.036,3.864a2,2 0 0 1 1.036,-3.864z" fill="#99dafb"/>
    </g>
    <g>
     <path d="m164.02651,261.52901c1.609,0.41 2.348,2.802 1.711,5.205c-0.253,1.386 -4,7.463 -5.322,8.062c-0.83,-1.15 -0.92,-8.285 -0.473,-9.615c0.65,-2.399 2.486,-4.1 4.084,-3.652zm-4.24,15.821c0.641,0.172 1.008,0.878 0.82,1.577c-0.186,0.699 -0.857,1.126 -1.497,0.955c-0.64,-0.172 -1.008,-0.877 -0.82,-1.576c0.187,-0.7 0.858,-1.127 1.498,-0.956l-0.001,0zm12.651,-12.337c1.448,0.813 1.542,3.314 0.306,5.47c-0.604,1.274 -5.796,6.174 -7.227,6.41c-0.505,-1.326 1.255,-8.24 2.03,-9.41c1.249,-2.149 3.464,-3.317 4.891,-2.47zm-8.19,14.185c0.574,0.332 0.746,1.108 0.385,1.735c-0.362,0.627 -1.12,0.866 -1.695,0.535c-0.574,-0.332 -0.746,-1.108 -0.384,-1.735s1.12,-0.866 1.694,-0.535zm15.413,-8.643c1.188,1.16 0.632,3.6 -1.12,5.364c-0.913,1.073 -7.197,4.463 -8.64,4.32c-0.144,-1.412 3.345,-7.635 4.397,-8.563c1.762,-1.753 4.203,-2.308 5.363,-1.12l0,-0.001zm-11.582,11.582c0.469,0.469 0.434,1.264 -0.078,1.775c-0.512,0.512 -1.307,0.547 -1.775,0.078c-0.469,-0.468 -0.434,-1.263 0.078,-1.775c0.512,-0.511 1.306,-0.546 1.775,-0.078zm17.124,-4.359c0.847,1.428 -0.321,3.641 -2.47,4.89c-1.16,0.801 -8.106,2.449 -9.464,1.938c0.226,-1.401 5.208,-6.51 6.463,-7.134c2.156,-1.237 4.658,-1.141 5.471,0.306zm-14.185,8.19c0.331,0.574 0.092,1.332 -0.535,1.694c-0.626,0.362 -1.403,0.19 -1.734,-0.384c-0.332,-0.574 -0.092,-1.332 0.534,-1.694c0.627,-0.362 1.404,-0.19 1.735,0.384zm17.669,0.221c0.449,1.599 -1.253,3.434 -3.652,4.085c-1.327,0.473 -8.464,0.267 -9.642,-0.579c0.58,-1.294 6.714,-4.939 8.089,-5.217c2.403,-0.637 4.795,0.103 5.205,1.711zm-15.821,4.24c0.171,0.64 -0.256,1.31 -0.955,1.498c-0.7,0.187 -1.405,-0.18 -1.577,-0.82c-0.171,-0.64 0.256,-1.311 0.955,-1.499c0.7,-0.187 1.405,0.18 1.577,0.82l0,0.001zm17.01,4.786c0.02,1.66 -2.1,2.993 -4.585,3c-1.405,0.114 -8.245,-1.932 -9.164,-3.054c0.896,-1.1 7.764,-3.033 9.164,-2.946c2.485,0.006 4.604,1.34 4.584,3l0.001,0zm-16.38,0c0,0.663 -0.587,1.2 -1.31,1.2c-0.724,0 -1.31,-0.537 -1.31,-1.2c0,-0.663 0.586,-1.2 1.31,-1.2c0.723,0 1.31,0.537 1.31,1.2zm15.19,9.026c-0.41,1.61 -2.8,2.348 -5.204,1.712c-1.386,-0.254 -7.463,-4 -8.061,-5.322c1.15,-0.83 8.284,-0.92 9.614,-0.474c2.4,0.65 4.1,2.486 3.652,4.084l-0.001,0zm-15.82,-4.239c-0.172,0.64 -0.878,1.007 -1.577,0.82c-0.699,-0.187 -1.126,-0.858 -0.955,-1.498c0.172,-0.64 0.878,-1.007 1.577,-0.82c0.699,0.187 1.126,0.858 0.955,1.498zm12.337,12.65c-0.813,1.448 -3.314,1.543 -5.47,0.306c-1.273,-0.603 -6.174,-5.796 -6.41,-7.227c1.327,-0.504 8.24,1.256 9.41,2.03c2.149,1.25 3.317,3.464 2.47,4.891zm-14.185,-8.19c-0.331,0.575 -1.108,0.747 -1.735,0.385c-0.626,-0.362 -0.866,-1.12 -0.535,-1.695c0.332,-0.574 1.109,-0.746 1.735,-0.384c0.627,0.362 0.866,1.12 0.535,1.695l0,-0.001zm8.643,15.413c-1.16,1.188 -3.6,0.632 -5.363,-1.12c-1.074,-0.913 -4.463,-7.197 -4.32,-8.64c1.41,-0.144 7.634,3.345 8.562,4.397c1.753,1.762 2.309,4.204 1.12,5.363l0.001,0zm-11.582,-11.582c-0.469,0.469 -1.263,0.434 -1.775,-0.078s-0.547,-1.306 -0.078,-1.775c0.468,-0.469 1.263,-0.434 1.775,0.078s0.547,1.307 0.078,1.775zm4.36,17.124c-1.429,0.848 -3.642,-0.321 -4.891,-2.47c-0.8,-1.16 -2.449,-8.106 -1.937,-9.464c1.4,0.227 6.508,5.208 7.133,6.464c1.237,2.156 1.142,4.658 -0.306,5.47l0.001,0zm-8.19,-14.185c-0.574,0.332 -1.333,0.092 -1.695,-0.534c-0.362,-0.627 -0.19,-1.404 0.384,-1.735c0.574,-0.332 1.333,-0.092 1.695,0.535c0.361,0.626 0.19,1.403 -0.385,1.734l0.001,0zm-0.222,17.67c-1.598,0.448 -3.434,-1.254 -4.084,-3.653c-0.474,-1.327 -0.267,-8.463 0.578,-9.642c1.295,0.581 4.94,6.715 5.217,8.09c0.638,2.402 -0.102,4.794 -1.71,5.204l-0.001,0.001zm-4.24,-15.822c-0.64,0.172 -1.31,-0.256 -1.497,-0.955c-0.188,-0.7 0.18,-1.405 0.82,-1.576c0.64,-0.172 1.31,0.256 1.498,0.955c0.187,0.699 -0.18,1.404 -0.82,1.576l-0.001,0zm-4.786,17.01c-1.66,0.02 -2.993,-2.1 -3,-4.585c-0.114,-1.404 1.933,-8.244 3.054,-9.164c1.1,0.896 3.033,7.764 2.946,9.164c-0.006,2.485 -1.34,4.605 -3,4.585zm0,-16.38c-0.663,0 -1.2,-0.586 -1.2,-1.31c0,-0.724 0.537,-1.31 1.2,-1.31c0.663,0 1.2,0.586 1.2,1.31c0,0.724 -0.537,1.31 -1.2,1.31zm-9.026,15.191c-1.609,-0.41 -2.348,-2.802 -1.711,-5.205c0.253,-1.385 4,-7.463 5.322,-8.061c0.83,1.15 0.92,8.285 0.473,9.614c-0.65,2.4 -2.486,4.101 -4.084,3.652zm4.24,-15.821c-0.641,-0.172 -1.008,-0.877 -0.82,-1.576c0.186,-0.7 0.857,-1.127 1.497,-0.955c0.64,0.171 1.008,0.877 0.82,1.576c-0.187,0.699 -0.858,1.127 -1.498,0.955l0.001,0zm-12.651,12.337c-1.448,-0.813 -1.542,-3.314 -0.306,-5.47c0.604,-1.273 5.796,-6.174 7.227,-6.41c0.505,1.327 -1.255,8.241 -2.03,9.41c-1.249,2.15 -3.464,3.318 -4.891,2.47zm8.19,-14.185c-0.574,-0.331 -0.746,-1.108 -0.385,-1.734c0.362,-0.627 1.12,-0.867 1.695,-0.535c0.574,0.331 0.746,1.108 0.384,1.735c-0.362,0.626 -1.12,0.866 -1.694,0.534zm-15.413,8.643c-1.188,-1.16 -0.632,-3.6 1.12,-5.363c0.913,-1.073 7.197,-4.463 8.64,-4.32c0.144,1.411 -3.345,7.634 -4.397,8.562c-1.762,1.754 -4.203,2.309 -5.363,1.121zm11.582,-11.582c-0.469,-0.468 -0.434,-1.263 0.078,-1.775s1.307,-0.547 1.775,-0.078c0.469,0.469 0.434,1.263 -0.078,1.775s-1.306,0.547 -1.775,0.078zm-17.124,4.36c-0.847,-1.429 0.321,-3.642 2.47,-4.891c1.16,-0.8 8.106,-2.449 9.464,-1.937c-0.226,1.4 -5.208,6.509 -6.463,7.133c-2.156,1.238 -4.658,1.142 -5.471,-0.306l0,0.001zm14.185,-8.19c-0.331,-0.574 -0.092,-1.333 0.535,-1.695c0.626,-0.362 1.403,-0.19 1.734,0.384c0.332,0.574 0.092,1.333 -0.534,1.695c-0.627,0.362 -1.404,0.19 -1.735,-0.384zm-17.669,-0.222c-0.449,-1.598 1.253,-3.434 3.652,-4.084c1.327,-0.473 8.464,-0.267 9.642,0.578c-0.58,1.295 -6.714,4.94 -8.089,5.218c-2.403,0.637 -4.795,-0.103 -5.205,-1.712zm15.821,-4.239c-0.171,-0.64 0.256,-1.31 0.955,-1.498c0.7,-0.187 1.405,0.18 1.577,0.82c0.171,0.64 -0.256,1.31 -0.955,1.498c-0.7,0.187 -1.405,-0.18 -1.577,-0.82zm-17.01,-4.787c-0.02,-1.66 2.1,-2.992 4.585,-3c1.405,-0.114 8.245,1.933 9.164,3.054c-0.896,1.1 -7.764,3.033 -9.164,2.946c-2.485,-0.006 -4.604,-1.34 -4.584,-3l-0.001,0zm16.38,0c0,-0.663 0.587,-1.2 1.31,-1.2c0.724,0 1.31,0.537 1.31,1.2c0,0.663 -0.586,1.2 -1.31,1.2c-0.723,0 -1.31,-0.537 -1.31,-1.2zm-15.19,-9.026c0.41,-1.609 2.8,-2.347 5.204,-1.711c1.386,0.253 7.463,4 8.061,5.322c-1.15,0.83 -8.284,0.92 -9.614,0.473c-2.4,-0.649 -4.1,-2.486 -3.652,-4.084l0.001,0zm15.82,4.24c0.172,-0.64 0.878,-1.008 1.577,-0.82c0.699,0.187 1.126,0.858 0.955,1.498c-0.172,0.64 -0.878,1.007 -1.577,0.82c-0.699,-0.188 -1.126,-0.858 -0.955,-1.499l0,0.001zm-12.337,-12.65c0.813,-1.449 3.314,-1.543 5.47,-0.307c1.273,0.604 6.174,5.796 6.41,7.227c-1.327,0.505 -8.24,-1.255 -9.41,-2.03c-2.149,-1.249 -3.317,-3.463 -2.47,-4.89zm14.185,8.189c0.331,-0.574 1.108,-0.746 1.735,-0.384c0.626,0.362 0.866,1.12 0.534,1.694c-0.33,0.574 -1.108,0.746 -1.734,0.384c-0.627,-0.362 -0.866,-1.12 -0.535,-1.694zm-8.643,-15.413c1.16,-1.188 3.6,-0.632 5.363,1.121c1.074,0.912 4.463,7.196 4.32,8.64c-1.41,0.144 -7.634,-3.346 -8.562,-4.397c-1.753,-1.762 -2.309,-4.204 -1.12,-5.364l-0.001,0zm11.582,11.582c0.469,-0.468 1.263,-0.433 1.775,0.078c0.512,0.512 0.547,1.307 0.078,1.775c-0.468,0.47 -1.263,0.434 -1.775,-0.078c-0.512,-0.511 -0.547,-1.306 -0.078,-1.775zm-4.36,-17.124c1.429,-0.847 3.642,0.321 4.891,2.47c0.8,1.16 2.449,8.107 1.937,9.464c-1.4,-0.226 -6.508,-5.207 -7.133,-6.463c-1.237,-2.156 -1.142,-4.658 0.306,-5.47l-0.001,-0.001zm8.19,14.185c0.574,-0.331 1.333,-0.092 1.695,0.535c0.362,0.627 0.19,1.403 -0.384,1.735c-0.574,0.331 -1.333,0.092 -1.695,-0.535c-0.361,-0.627 -0.19,-1.403 0.385,-1.735l-0.001,0zm0.222,-17.669c1.598,-0.449 3.434,1.253 4.084,3.652c0.474,1.327 0.267,8.464 -0.578,9.643c-1.295,-0.581 -4.94,-6.715 -5.217,-8.09c-0.638,-2.402 0.102,-4.794 1.71,-5.205l0.001,0zm4.24,15.821c0.64,-0.171 1.31,0.257 1.497,0.956c0.188,0.699 -0.18,1.404 -0.82,1.576c-0.64,0.171 -1.31,-0.256 -1.498,-0.955c-0.187,-0.7 0.18,-1.405 0.82,-1.577l0.001,0zm4.786,-17.009c1.66,-0.02 2.993,2.099 3,4.585c0.114,1.404 -1.933,8.244 -3.054,9.164c-1.1,-0.897 -3.033,-7.764 -2.946,-9.164c0.006,-2.486 1.34,-4.605 3,-4.585zm0,16.38c0.663,0 1.2,0.586 1.2,1.31c0,0.723 -0.537,1.31 -1.2,1.31c-0.663,0 -1.2,-0.587 -1.2,-1.31c0,-0.724 0.537,-1.31 1.2,-1.31z" fill="#1070ff"/>
    </g>
    <g>
     <path d="m155.00051,285.34101c5.523,0 10,4.477 10,10s-4.477,10 -10,10s-10,-4.477 -10,-10s4.477,-10 10,-10z" fill="#1070ff"/>
    </g>
    <g>
     <path d="m155.00051,289.34101a6,6 0 1 1 0,12a6,6 0 0 1 0,-12z"/>
    </g>
   </g>
  </g>
 </g>

</svg>