<svg width="310" height="450" xmlns="http://www.w3.org/2000/svg">
 <g>
  <title>Layer 1</title>
  <path fill="#000000" stroke="#000" opacity="undefined" d="m0.48077,0.04257l310,0l0,450l-310,0l0,-450z" id="svg_1"/>
  <path fill="#ffffff" stroke="#000" opacity="undefined" d="m85.84015,142.46594c-1.22775,0 -2.22222,-0.99447 -2.22222,-2.22222c0,-1.22775 0.99447,-2.22222 2.22222,-2.22222c1.22775,0 2.22222,0.99447 2.22222,2.22222c0,1.22775 -0.99447,2.22222 -2.22222,2.22222z" id="svg_2"/>
  <path fill="#ffffff" stroke="#000" opacity="undefined" d="m229.52248,210.85533c-1.2696,0 -2.29798,-1.02838 -2.29798,-2.29798c0,-1.2696 1.02838,-2.29798 2.29798,-2.29798c1.2696,0 2.29798,1.02838 2.29798,2.29798c0,1.2696 -1.02838,2.29798 -2.29798,2.29798z" id="svg_3"/>
  <ellipse fill="#ffffff" stroke="#000" cx="77.97428" cy="300.14203" id="svg_4" rx="2.5" ry="2.5"/>
  <ellipse fill="#ffffff" stroke="#000" cx="216.01005" cy="329.89871" id="svg_5" rx="2.12121" ry="2.12121"/>
  <path fill="#ffffff" stroke="#000" opacity="undefined" d="m75.81076,216.6022c-1.08823,0 -1.9697,-0.88147 -1.9697,-1.9697c0,-1.08823 0.88147,-1.9697 1.9697,-1.9697c1.08823,0 1.9697,0.88147 1.9697,1.9697c0,1.08823 -0.88147,1.9697 -1.9697,1.9697z" id="svg_6"/>
  <ellipse fill="#ffffff" stroke="#000" cx="222.24742" cy="116.13621" id="svg_7" rx="2.80303" ry="2.80303"/>
  <ellipse fill="#ffffff" stroke="#000" cx="79.49497" cy="49.49482" id="svg_8" rx="2.27273" ry="2.27273"/>
  <ellipse fill="#ffffff" stroke="#000" cx="111.18687" cy="380.07548" id="svg_9" rx="2.14646" ry="2.14646"/>
  <ellipse fill="#ffffff" stroke="#000" cx="222.80297" cy="400.58051" id="svg_10" rx="2.24747" ry="2.24747"/>
  <ellipse fill="#ffffff" stroke="#000" cx="202.03031" cy="167.86524" id="svg_11" rx="2.39899" ry="2.39899"/>
  <ellipse fill="#ffffff" stroke="#000" cx="163.88887" cy="263.88866" id="svg_12" rx="1.66667" ry="1.66667"/>
  <ellipse fill="#ffffff" stroke="#000" cx="39.72226" cy="411.38859" id="svg_13" rx="3.05555" ry="3.05555"/>
  <ellipse fill="#ffffff" stroke="#000" cx="257.90397" cy="49.31805" id="svg_14" rx="2.65151" ry="2.65151"/>
  <ellipse fill="#ffffff" stroke="#000" cx="136.6414" cy="88.30794" id="svg_15" rx="2.24747" ry="2.24747"/>
  <ellipse fill="#ffffff" stroke="#000" cx="273.5131" cy="169.2644" id="svg_16" rx="1.48682" ry="1.48682"/>
  <ellipse fill="#ffffff" stroke="#000" cx="132.77777" cy="323.33306" id="svg_17" rx="1.66666" ry="1.66666"/>
  <ellipse fill="#ffffff" stroke="#000" cx="238.88883" cy="256.66644" id="svg_18" rx="1.11111" ry="1.11111"/>
  <ellipse fill="#ffffff" stroke="#000" cx="139.38452" cy="192.91374" id="svg_19" rx="1.94444" ry="1.94444"/>
  <path stroke-opacity="0" id="svg_20" d="m186.0987,178.76901l-30.01951,-5.3166l11.05982,-5.77505c6.08288,-3.17633 11.59822,-6.25123 12.25628,-6.83311c1.63465,-1.44535 -18.72246,-32.90289 -21.27555,-32.87685c-1.1223,0.01272 -8.94271,12.19369 -17.37865,27.07172c-8.49699,14.98546 -16.95339,26.39804 -18.9597,25.58722c-23.746,-9.59537 -43.12094,-19.30377 -43.12094,-21.607c0,-1.57322 7.4505,-15.60707 16.55675,-31.18637l16.55676,-28.32594l45.14257,0l45.14257,0l11.78346,18.63645l11.78356,18.63645l12.29284,-6.30659c8.52166,-4.37194 11.76647,-4.99972 10.57687,-2.04672c-10.47388,26.00304 -26.10257,56.32304 -28.88065,56.02892c-1.92336,-0.20347 -17.00574,-2.76245 -33.51649,-5.68652l-0.00001,-0.00001zm-140.0068,116.01066c-11.42415,-19.6733 -21.66283,-38.09316 -22.75254,-40.93315c-1.11834,-2.91423 2.13996,-13.32775 7.48029,-23.90675l9.46162,-18.74349l-9.67214,-5.71352c-12.87162,-7.60344 -8.08714,-9.94524 26.05762,-12.75416l26.9855,-2.21991l10.58498,27.96797c5.82182,15.38237 11.32993,29.95451 12.24037,32.38273c0.94949,2.53235 -3.59467,0.84744 -10.65692,-3.95148l-12.31221,-8.36644l-8.59487,16.59128c-4.72709,9.12536 -8.66189,17.60826 -8.74386,18.85091c-0.08216,1.24264 14.42613,2.66467 32.24039,3.15995l32.38947,0.90049l2.11374,23.69248c1.1626,13.03094 1.87352,23.86665 1.57997,24.07939c-0.29353,0.21253 -15.6304,1.36472 -34.08189,2.56014l-33.54822,2.17341l-20.7713,-35.76986l0,0.00003zm127.85343,34.76058c-19.61217,-29.60119 -19.95306,-27.39939 9.1968,-59.39601l18.71223,-20.53967l-1.9874,15.00976l-1.98749,15.00977l20.96917,0c11.53302,0 20.96928,-0.92231 20.96928,-2.04943c0,-1.12731 -6.39896,-13.78832 -14.21986,-28.13596c-7.82089,-14.34764 -14.19016,-27.28966 -14.154,-28.76007c0.0812,-3.29708 41.07729,-30.52272 43.02625,-28.57379c0.77224,0.77225 8.38028,14.52624 16.90677,30.56475l15.50292,29.16049l-20.85962,33.64676c-11.47296,18.50549 -22.49593,35.45163 -24.49538,37.65786c-1.99967,2.20623 -13.1807,4.90272 -24.84682,5.99201c-22.26776,2.07949 -21.66158,1.57863 -24.92654,20.59368c-0.57136,3.32775 -7.234,-4.22303 -17.80634,-20.18016l0,0.00002z" stroke-width="2" stroke="#ffff56" fill="#bf5f00"/>
 </g>

</svg>