<svg width="310" height="449.99999999999994" xmlns="http://www.w3.org/2000/svg">
 <g>
  <title>Layer 1</title>
  <path fill="#000000" stroke="#000" opacity="undefined" d="m0.48077,0.04257l310,0l0,450l-310,0l0,-450z" id="svg_1"/>
  <path fill="#ffffff" stroke="#000" opacity="undefined" d="m85.84015,142.46594c-1.22775,0 -2.22222,-0.99447 -2.22222,-2.22222c0,-1.22775 0.99447,-2.22222 2.22222,-2.22222c1.22775,0 2.22222,0.99447 2.22222,2.22222c0,1.22775 -0.99447,2.22222 -2.22222,2.22222z" id="svg_2"/>
  <path fill="#ffffff" stroke="#000" opacity="undefined" d="m229.52248,210.85533c-1.2696,0 -2.29798,-1.02838 -2.29798,-2.29798c0,-1.2696 1.02838,-2.29798 2.29798,-2.29798c1.2696,0 2.29798,1.02838 2.29798,2.29798c0,1.2696 -1.02838,2.29798 -2.29798,2.29798z" id="svg_3"/>
  <ellipse fill="#ffffff" stroke="#000" cx="77.97428" cy="300.14203" id="svg_4" rx="2.5" ry="2.5"/>
  <ellipse fill="#ffffff" stroke="#000" cx="216.01005" cy="329.89871" id="svg_5" rx="2.12121" ry="2.12121"/>
  <path fill="#ffffff" stroke="#000" opacity="undefined" d="m75.81076,216.6022c-1.08823,0 -1.9697,-0.88147 -1.9697,-1.9697c0,-1.08823 0.88147,-1.9697 1.9697,-1.9697c1.08823,0 1.9697,0.88147 1.9697,1.9697c0,1.08823 -0.88147,1.9697 -1.9697,1.9697z" id="svg_6"/>
  <ellipse fill="#ffffff" stroke="#000" cx="222.24742" cy="116.13621" id="svg_7" rx="2.80303" ry="2.80303"/>
  <ellipse fill="#ffffff" stroke="#000" cx="79.49497" cy="49.49482" id="svg_8" rx="2.27273" ry="2.27273"/>
  <ellipse fill="#ffffff" stroke="#000" cx="111.18687" cy="380.07548" id="svg_9" rx="2.14646" ry="2.14646"/>
  <ellipse fill="#ffffff" stroke="#000" cx="222.80297" cy="400.58051" id="svg_10" rx="2.24747" ry="2.24747"/>
  <ellipse fill="#ffffff" stroke="#000" cx="202.03031" cy="167.86524" id="svg_11" rx="2.39899" ry="2.39899"/>
  <ellipse fill="#ffffff" stroke="#000" cx="163.88887" cy="263.88866" id="svg_12" rx="1.66667" ry="1.66667"/>
  <ellipse fill="#ffffff" stroke="#000" cx="39.72226" cy="411.38859" id="svg_13" rx="3.05555" ry="3.05555"/>
  <ellipse fill="#ffffff" stroke="#000" cx="257.90397" cy="49.31805" id="svg_14" rx="2.65151" ry="2.65151"/>
  <ellipse fill="#ffffff" stroke="#000" cx="136.6414" cy="88.30794" id="svg_15" rx="2.24747" ry="2.24747"/>
  <ellipse fill="#ffffff" stroke="#000" cx="273.5131" cy="169.2644" id="svg_16" rx="1.48682" ry="1.48682"/>
  <ellipse fill="#ffffff" stroke="#000" cx="132.77777" cy="323.33306" id="svg_17" rx="1.66666" ry="1.66666"/>
  <ellipse fill="#ffffff" stroke="#000" cx="238.88883" cy="256.66644" id="svg_18" rx="1.11111" ry="1.11111"/>
  <ellipse fill="#ffffff" stroke="#000" cx="139.38452" cy="192.91374" id="svg_19" rx="1.94444" ry="1.94444"/>
  <g id="svg_25">
   <ellipse fill="#ff0000" stroke="#000" cx="155.30424" cy="274.39395" id="svg_21" rx="23.88981" ry="23.88981"/>
   <path fill="#ff0000" stroke="#ff0000" stroke-width="0" d="m149.48402,195.8261c1.29286,-10.71499 3.62382,-19.86024 5.60682,-28.93628c2.3068,5.82443 4.29975,18.63807 6.03362,27.56249c-1.5465,10.32268 -3.77266,19.72382 -5.77814,28.98144c-2.16194,-8.46985 -4.01075,-18.14683 -5.86231,-27.60765l0,0l0.00001,0z" id="svg_36"/>
   <path fill="#ff0000" stroke="#ff0000" stroke-width="0" d="m149.48402,355.8878c1.29286,-10.71499 3.62382,-19.86024 5.60682,-28.93628c2.3068,5.82443 4.29975,18.63807 6.03362,27.56249c-1.5465,10.32268 -3.77266,19.72382 -5.77814,28.98144c-2.16194,-8.46985 -4.01075,-18.14683 -5.86231,-27.60765l0,0l0.00001,0z" id="svg_37"/>
   <path fill="#ff0000" stroke="#ff0000" stroke-width="0" d="m73.39649,280.21416c-10.71499,-1.29286 -19.86024,-3.62382 -28.93628,-5.60682c5.82443,-2.3068 18.63807,-4.29975 27.56249,-6.03362c10.32268,1.5465 19.72382,3.77266 28.98144,5.77814c-8.46985,2.16194 -18.14683,4.01075 -27.60765,5.86231l0,0l0,-0.00001z" id="svg_38"/>
   <path fill="#ff0000" stroke="#ff0000" stroke-width="0" d="m238.23549,280.21352c-10.71499,-1.29286 -19.86024,-3.62382 -28.93628,-5.60682c5.82443,-2.3068 18.63807,-4.29975 27.56249,-6.03362c10.32268,1.5465 19.72382,3.77266 28.98144,5.77814c-8.46985,2.16194 -18.14683,4.01075 -27.60765,5.86231l0,0l0,-0.00001z" id="svg_39"/>
   <path fill="#ff0000" stroke="#ff0000" stroke-width="0" d="m206.4242,339.80536c-6.66245,-8.49083 -11.48089,-16.60574 -16.49642,-24.42566c5.74965,2.48734 16.21949,10.13873 23.75604,15.22321c6.2057,8.39278 11.27917,16.61452 16.40721,24.57873c-7.51781,-4.46037 -15.66778,-9.99572 -23.66683,-15.37628l0,0z" id="svg_40"/>
   <path fill="#ff0000" stroke="#ff0000" stroke-width="0" d="m98.40574,222.07027c-6.66245,-8.49083 -11.48089,-16.60574 -16.49642,-24.42566c5.74965,2.48734 16.21949,10.13873 23.75604,15.22321c6.2057,8.39278 11.27917,16.61452 16.40721,24.57873c-7.51781,-4.46037 -15.66778,-9.99572 -23.66683,-15.37628l0,0z" id="svg_41"/>
   <path fill="#ff0000" stroke="#ff0000" stroke-width="0" d="m96.3232,333.28886c8.49083,-6.66245 16.60574,-11.48089 24.42566,-16.49642c-2.48734,5.74965 -10.13873,16.21949 -15.22321,23.75604c-8.39278,6.2057 -16.61452,11.27917 -24.57873,16.40721c4.46037,-7.51781 9.99572,-15.66778 15.37628,-23.66683l0,0z" id="svg_42"/>
   <path fill="#ff0000" stroke="#ff0000" stroke-width="0" d="m206.05671,209.83978c8.49083,-6.66245 16.60574,-11.48089 24.42566,-16.49642c-2.48734,5.74965 -10.13873,16.21949 -15.22321,23.75604c-8.39278,6.2057 -16.61452,11.27917 -24.57873,16.40721c4.46037,-7.51781 9.99572,-15.66778 15.37628,-23.66683l0,0z" id="svg_43"/>
   <path fill="#ff4242" stroke="#ff0000" stroke-width="0" d="m269.97532,274.39396l10.07118,-10.07118l10.07118,10.07118l-10.07118,10.07118l-10.07118,-10.07118z" id="svg_46"/>
   <path fill="#ff4242" stroke="#ff0000" stroke-width="0" d="m145.74831,396.74721l10.07118,-10.07118l10.07118,10.07118l-10.07118,10.07118l-10.07118,-10.07118z" id="svg_47"/>
   <path fill="#ff4242" stroke="#ff0000" stroke-width="0" d="m145.74831,153.07118l10.07118,-10.07118l10.07118,10.07118l-10.07118,10.07118l-10.07118,-10.07118z" id="svg_48"/>
   <path fill="#ff4242" stroke="#ff0000" stroke-width="0" d="m19.88234,274.74255l10.07118,-10.07118l10.07118,10.07118l-10.07118,10.07118l-10.07118,-10.07118z" id="svg_45"/>
   <path transform="rotate(-45, 71.2035, 367.242)" fill="#ff4242" stroke="#ff0000" stroke-width="0" d="m61.1323,367.24246l10.07118,-10.07118l10.07118,10.07118l-10.07118,10.07118l-10.07118,-10.07118z" id="svg_20"/>
   <path transform="rotate(-45, 240.37, 183.909)" fill="#ff4242" stroke="#ff0000" stroke-width="0" d="m230.29881,183.9093l10.07118,-10.07118l10.07118,10.07118l-10.07118,10.07118l-10.07118,-10.07118z" id="svg_22"/>
   <path transform="rotate(-45, 240.37, 365.575)" fill="#ff4242" stroke="#ff0000" stroke-width="0" d="m230.29881,365.5758l10.07118,-10.07118l10.07118,10.07118l-10.07118,10.07118l-10.07118,-10.07118z" id="svg_23"/>
   <path transform="rotate(-45, 71.6202, 187.242)" fill="#ff4242" stroke="#ff0000" stroke-width="0" d="m61.54897,187.24263l10.07118,-10.07118l10.07118,10.07118l-10.07118,10.07118l-10.07118,-10.07118z" id="svg_24"/>
  </g>
 </g>

</svg>