<svg width="310.00000000000006" height="450" xmlns="http://www.w3.org/2000/svg">
 <g>
  <title>Layer 1</title>
  <path fill="#000000" stroke="#000" opacity="undefined" d="m0.48077,0.04257l310,0l0,450l-310,0l0,-450z" id="svg_1"/>
  <path fill="#ffffff" stroke="#000" opacity="undefined" d="m85.84015,142.46594c-1.22775,0 -2.22222,-0.99447 -2.22222,-2.22222c0,-1.22775 0.99447,-2.22222 2.22222,-2.22222c1.22775,0 2.22222,0.99447 2.22222,2.22222c0,1.22775 -0.99447,2.22222 -2.22222,2.22222z" id="svg_2"/>
  <path fill="#ffffff" stroke="#000" opacity="undefined" d="m229.52248,210.85533c-1.2696,0 -2.29798,-1.02838 -2.29798,-2.29798c0,-1.2696 1.02838,-2.29798 2.29798,-2.29798c1.2696,0 2.29798,1.02838 2.29798,2.29798c0,1.2696 -1.02838,2.29798 -2.29798,2.29798z" id="svg_3"/>
  <ellipse fill="#ffffff" stroke="#000" cx="77.97428" cy="300.14203" id="svg_4" rx="2.5" ry="2.5"/>
  <ellipse fill="#ffffff" stroke="#000" cx="216.01005" cy="329.89871" id="svg_5" rx="2.12121" ry="2.12121"/>
  <path fill="#ffffff" stroke="#000" opacity="undefined" d="m75.81076,216.6022c-1.08823,0 -1.9697,-0.88147 -1.9697,-1.9697c0,-1.08823 0.88147,-1.9697 1.9697,-1.9697c1.08823,0 1.9697,0.88147 1.9697,1.9697c0,1.08823 -0.88147,1.9697 -1.9697,1.9697z" id="svg_6"/>
  <ellipse fill="#ffffff" stroke="#000" cx="222.24742" cy="116.13621" id="svg_7" rx="2.80303" ry="2.80303"/>
  <ellipse fill="#ffffff" stroke="#000" cx="79.49497" cy="49.49482" id="svg_8" rx="2.27273" ry="2.27273"/>
  <ellipse fill="#ffffff" stroke="#000" cx="111.18687" cy="380.07548" id="svg_9" rx="2.14646" ry="2.14646"/>
  <ellipse fill="#ffffff" stroke="#000" cx="222.80297" cy="400.58051" id="svg_10" rx="2.24747" ry="2.24747"/>
  <ellipse fill="#ffffff" stroke="#000" cx="202.03031" cy="167.86524" id="svg_11" rx="2.39899" ry="2.39899"/>
  <ellipse fill="#ffffff" stroke="#000" cx="163.88887" cy="263.88866" id="svg_12" rx="1.66667" ry="1.66667"/>
  <ellipse fill="#ffffff" stroke="#000" cx="39.72226" cy="411.38859" id="svg_13" rx="3.05555" ry="3.05555"/>
  <ellipse fill="#ffffff" stroke="#000" cx="257.90397" cy="49.31805" id="svg_14" rx="2.65151" ry="2.65151"/>
  <ellipse fill="#ffffff" stroke="#000" cx="136.6414" cy="88.30794" id="svg_15" rx="2.24747" ry="2.24747"/>
  <ellipse fill="#ffffff" stroke="#000" cx="273.5131" cy="169.2644" id="svg_16" rx="1.48682" ry="1.48682"/>
  <ellipse fill="#ffffff" stroke="#000" cx="132.77777" cy="323.33306" id="svg_17" rx="1.66666" ry="1.66666"/>
  <ellipse fill="#ffffff" stroke="#000" cx="238.88883" cy="256.66644" id="svg_18" rx="1.11111" ry="1.11111"/>
  <ellipse fill="#ffffff" stroke="#000" cx="139.38452" cy="192.91374" id="svg_19" rx="1.94444" ry="1.94444"/>
  <path id="svg_21" d="m154.99999,176c-60.02657,0 -108.68262,48.65893 -108.68262,108.68267c0,60.02682 48.65606,108.68261 108.68262,108.68261c60.02376,0 108.68266,-48.65579 108.68266,-108.68261c0,-60.02374 -48.65889,-108.68267 -108.68266,-108.68267zm9.92992,171.27947l-20.24198,0l0,-19.41165l20.24198,0l0,19.41165zm0,-40.13842l0,6.41539l-20.24198,0l0,-7.90461c0,-23.85305 27.14493,-27.6383 27.14493,-44.59149c0,-7.73032 -6.91168,-13.65195 -15.96014,-13.65195c-9.37637,0 -17.60023,6.90875 -17.60023,6.90875l-11.52435,-14.31998c0,0 11.35895,-11.84655 30.93593,-11.84655c18.59615,0 35.86263,11.51575 35.86263,30.93024c0.00868,27.15929 -28.61679,30.2914 -28.61679,48.06019l0,0.00001z" stroke-opacity="0" stroke-width="2" stroke="#ffff56" fill="#ffffff"/>
 </g>

</svg>